<?xml version="1.0" standalone="no"?><!DOCTYPE svg PUBLIC "-//W3C//DTD SVG 1.1//EN" "http://www.w3.org/Graphics/SVG/1.1/DTD/svg11.dtd"><svg t="1746801384176" class="icon" viewBox="0 0 1192 1024" version="1.1" xmlns="http://www.w3.org/2000/svg" p-id="1512" xmlns:xlink="http://www.w3.org/1999/xlink" width="232.8125" height="200"><path d="M1016.48935742 517.86047656c-21.48841406-18.55817578-45.41869336-34.18611328-71.30246484-46.39543945 33.69774023-33.20936719 63.48849609-83.51179102 62.51175-144.07004883-1.95349219-103.04671289-92.30250586-151.39564453-140.16306446-163.11659766-7.3255957-1.95349219-15.6279375-0.48837305-21.9767871 3.90698438s-11.23258008 10.74420703-12.69769922 18.06980273c-3.90698437 15.6279375 5.86047656 31.74424805 21.48841406 35.16285938 0.97674609 0.48837305 92.79087891 22.9535332 94.74437109 106.95369726 0.97674609 62.51175-46.8838125 109.88393555-77.65131445 125.51187305-11.23258008 5.37210352-17.58142969 17.58142969-16.11631055 29.79075586 1.46511914 12.20932617 10.74420703 22.46516016 22.95353321 24.90702539 8.79071484 1.46511914 207.07017187 49.81405078 182.65151953 294.00057422-0.97674609 8.3023418 1.46511914 16.60468359 7.3255957 22.46516016 5.37210352 6.34884961 13.18607227 9.76746094 21.97678711 9.76746093 15.13956445 0 27.83726367-11.23258008 29.30238281-26.37214453 15.13956445-154.32588281-47.37218555-242.7214043-103.04671289-290.58196289zM296.13911328 509.06976172c12.20932617-2.93023828 21.48841406-12.69769922 22.9535332-24.90702539 1.46511914-12.20932617-4.88373047-24.41865234-16.11631054-29.79075586-30.76750195-14.65119141-79.11643359-63.00012305-78.1396875-125.51187305 1.46511914-83.02341797 90.83738672-105.97695117 95.23274414-106.95369726 15.6279375-3.90698437 25.39539844-19.53492187 21.48841406-35.65123243-3.90698437-15.6279375-19.53492187-25.39539844-35.65123242-21.48841406-46.8838125 11.23258008-137.23282617 59.58151172-139.67469141 163.11659766-0.97674609 60.55825781 29.30238281 110.86068164 63.00012305 144.07004883-25.88377148 12.20932617-49.81405078 27.83726367-71.30246484 46.39543945-55.1861543 47.37218555-118.18627734 136.25608008-102.55833985 291.07033594 2.44186523 15.6279375 16.60468359 26.37214453 31.74424805 24.90702539 15.6279375-1.46511914 27.34889063-15.13956445 26.37214453-30.76750196-23.9302793-244.67489648 174.34917773-292.53545508 182.65151953-294.48894726z" p-id="1513" fill="#ffffff"></path><path d="M962.76832227 815.27966211c0-101.58159375-39.06984375-173.86080469-109.3955625-239.79116602a364.47280488 364.47280488 0 0 0-138.20957227-80.09317968C780.11680273 452.90686133 819.67501953 380.13927734 819.67501953 301.99958984c0-127.46536523-103.53508594-230.51207812-231.00045117-231.00045117-126.97699219 0.48837305-230.02370508 103.53508594-230.51207813 231.00045117 0 77.65131445 39.06984375 149.93052539 103.53508594 192.41898047-52.74428906 16.11631055-100.60484766 43.46520117-141.13981055 80.58155274-70.32571875 65.93036133-109.3955625 138.20957227-109.3955625 239.79116601 0 4.88373047-0.48837305 10.74420703-0.48837304 16.6046836-0.97674609 26.37214453-2.93023828 58.60476562 18.55817578 82.04667187 12.69769922 13.18607227 30.27912891 21.00004102 53.72103516 21.00004102 38.5814707 0.48837305 297.41918555 0.48837305 507.90796875 0.48837304h106.46532421c21.48841406 0 38.5814707-6.34884961 50.30242383-19.04654882 21.00004102-21.97678711 18.55817578-52.74428906 17.09305664-80.09317969-0.97674609-7.3255957-1.46511914-13.67444531-1.95349218-20.51166797zM416.76725586 302.48796289c0-95.23274414 77.16294141-171.9073125 171.9073125-171.9073125 94.74437109 0.48837305 171.9073125 77.16294141 171.9073125 171.9073125-0.48837305 94.74437109-77.16294141 171.9073125-171.9073125 171.9073125-94.74437109-0.48837305-171.9073125-77.16294141-171.9073125-171.9073125z m487.39630078 572.86158398c-0.48837305 0.48837305-3.41861133 0.97674609-8.3023418 0.9767461H790.37263672c-171.9073125 0-466.88463281 0-506.93122266-0.48837305-7.3255957 0-10.74420703-1.46511914-11.72095312-2.93023828-4.39535742-4.88373047-3.41861133-26.86051758-2.93023828-38.5814707 0.48837305-6.34884961 0.48837305-12.69769922 0.48837304-19.04654883 0-173.86080469 133.81421484-280.32612891 317.44248047-280.32612891s317.44248047 106.46532422 317.44248047 280.32612891c0 7.81396875 0.48837305 16.11631055 0.97674609 23.44190625 0.97674609 10.74420703 2.44186523 31.255875-0.97674609 36.62797851z" p-id="1514" fill="#ffffff"></path></svg>