<svg xmlns="http://www.w3.org/2000/svg" xmlns:xlink="http://www.w3.org/1999/xlink" width="295.32147216796875" height="354.52783203125" viewBox="0 0 295.32147216796875 354.52783203125" fill="none">
<path d="M2.48102 268.083L148.526 352.312L293.639 268.083L147.594 183.854L2.48102 268.083Z"   fill="#3DE6FF" fill-opacity="0.2">
</path>
<path   fill="rgba(61, 221, 255, 0.4)"  d="M292.787 269.281L291.646 268.622L292.661 266.863L293.803 267.522L292.787 269.281ZM289.363 267.304L287.08 265.986L288.096 264.227L290.379 265.545L289.363 267.304ZM284.797 264.668L282.515 263.35L283.53 261.591L285.813 262.909L284.797 264.668ZM280.232 262.032L277.949 260.714L278.965 258.955L281.247 260.273L280.232 262.032ZM275.666 259.396L273.383 258.078L274.399 256.319L276.682 257.637L275.666 259.396ZM271.101 256.761L268.818 255.443L269.833 253.683L272.116 255.001L271.101 256.761ZM266.535 254.125L264.252 252.807L265.268 251.048L267.551 252.365L266.535 254.125ZM261.969 251.489L259.686 250.171L260.702 248.412L262.985 249.73L261.969 251.489ZM257.404 248.853L255.121 247.535L256.136 245.776L258.419 247.094L257.404 248.853ZM252.838 246.217L250.555 244.899L251.571 243.14L253.854 244.458L252.838 246.217ZM248.272 243.581L245.99 242.263L247.005 240.504L249.288 241.822L248.272 243.581ZM243.707 240.945L241.424 239.627L242.44 237.868L244.722 239.186L243.707 240.945ZM239.141 238.309L236.858 236.991L237.874 235.232L240.157 236.55L239.141 238.309ZM234.575 235.673L232.293 234.355L233.308 232.596L235.591 233.914L234.575 235.673ZM230.01 233.037L227.727 231.719L228.743 229.96L231.025 231.278L230.01 233.037ZM225.444 230.401L223.161 229.083L224.177 227.324L226.46 228.642L225.444 230.401ZM220.879 227.765L218.596 226.447L219.611 224.688L221.894 226.006L220.879 227.765ZM216.313 225.129L214.03 223.811L215.046 222.052L217.329 223.37L216.313 225.129ZM211.747 222.493L209.464 221.175L210.48 219.416L212.763 220.734L211.747 222.493ZM207.182 219.857L204.899 218.539L205.914 216.78L208.197 218.098L207.182 219.857ZM202.616 217.222L200.333 215.904L201.349 214.144L203.632 215.462L202.616 217.222ZM198.05 214.586L195.767 213.268L196.783 211.508L199.066 212.826L198.05 214.586ZM193.485 211.95L191.202 210.632L192.217 208.873L194.5 210.191L193.485 211.95ZM188.919 209.314L186.636 207.996L187.652 206.237L189.935 207.555L188.919 209.314ZM184.353 206.678L182.071 205.36L183.086 203.601L185.369 204.919L184.353 206.678ZM179.788 204.042L177.505 202.724L178.521 200.965L180.803 202.283L179.788 204.042ZM175.222 201.406L172.939 200.088L173.955 198.329L176.238 199.647L175.222 201.406ZM170.656 198.77L168.374 197.452L169.389 195.693L171.672 197.011L170.656 198.77ZM166.091 196.134L163.808 194.816L164.824 193.057L167.106 194.375L166.091 196.134ZM161.525 193.498L159.242 192.18L160.258 190.421L162.541 191.739L161.525 193.498ZM156.96 190.862L154.677 189.544L155.692 187.785L157.975 189.103L156.96 190.862ZM152.394 188.226L150.111 186.908L151.127 185.149L153.41 186.467L152.394 188.226ZM147.828 185.59L146.687 184.931L147.195 184.052L147.705 184.93L146.534 185.61L145.514 183.854L147.193 182.878L148.844 183.831L147.828 185.59ZM144.193 186.971L141.851 188.331L140.831 186.575L143.172 185.214L144.193 186.971ZM139.51 189.692L137.169 191.052L136.148 189.296L138.489 187.935L139.51 189.692ZM134.827 192.413L132.486 193.773L131.465 192.017L133.807 190.656L134.827 192.413ZM130.144 195.134L127.803 196.494L126.782 194.738L129.124 193.377L130.144 195.134ZM125.461 197.854L123.12 199.215L122.099 197.459L124.441 196.098L125.461 197.854ZM120.779 200.575L118.437 201.936L117.417 200.18L119.758 198.819L120.779 200.575ZM116.096 203.296L113.754 204.657L112.734 202.901L115.075 201.54L116.096 203.296ZM111.413 206.017L109.071 207.378L108.051 205.622L110.392 204.261L111.413 206.017ZM106.73 208.738L104.389 210.099L103.368 208.343L105.71 206.982L106.73 208.738ZM102.047 211.459L99.7058 212.82L98.6853 211.064L101.027 209.703L102.047 211.459ZM97.3643 214.18L95.0229 215.541L94.0024 213.784L96.3438 212.424L97.3643 214.18ZM92.6815 216.901L90.3401 218.262L89.3196 216.505L91.661 215.145L92.6815 216.901ZM87.9986 219.622L85.6572 220.983L84.6367 219.226L86.9781 217.866L87.9986 219.622ZM83.3158 222.343L80.9744 223.704L79.9539 221.947L82.2953 220.587L83.3158 222.343ZM78.6329 225.064L76.2915 226.425L75.271 224.668L77.6125 223.308L78.6329 225.064ZM73.9501 227.785L71.6087 229.146L70.5882 227.389L72.9296 226.029L73.9501 227.785ZM69.2673 230.506L66.9258 231.867L65.9053 230.11L68.2468 228.75L69.2673 230.506ZM64.5844 233.227L62.243 234.588L61.2225 232.831L63.5639 231.471L64.5844 233.227ZM59.9016 235.948L57.5601 237.308L56.5396 235.552L58.8811 234.192L59.9016 235.948ZM55.2187 238.669L52.8773 240.029L51.8568 238.273L54.1982 236.913L55.2187 238.669ZM50.5359 241.39L48.1945 242.75L47.174 240.994L49.5154 239.634L50.5359 241.39ZM45.853 244.111L43.5116 245.471L42.4911 243.715L44.8325 242.355L45.853 244.111ZM41.1702 246.832L38.8288 248.192L37.8083 246.436L40.1497 245.076L41.1702 246.832ZM36.4873 249.553L34.1459 250.913L33.1254 249.157L35.4668 247.797L36.4873 249.553ZM31.8045 252.274L29.4631 253.634L28.4426 251.878L30.784 250.517L31.8045 252.274ZM27.1216 254.995L24.7802 256.355L23.7597 254.599L26.1012 253.238L27.1216 254.995ZM22.4388 257.716L20.0974 259.076L19.0769 257.32L21.4183 255.959L22.4388 257.716ZM17.756 260.437L15.4145 261.797L14.394 260.041L16.7355 258.68L17.756 260.437ZM13.0731 263.158L10.7317 264.518L9.71119 262.762L12.0526 261.401L13.0731 263.158ZM8.39026 265.879L6.04884 267.239L5.02834 265.483L7.36977 264.122L8.39026 265.879ZM3.70742 268.6L2.5367 269.28L1.51621 267.523L2.68692 266.843L3.70742 268.6Z">
</path>
<path d="M148.079 353L293.188 268.766L293.639 201.746L148.53 285.979L148.079 353Z"   fill="url(#linear_fill_9l1vjlvMehDME3tAjSLCW)" >
</path>
<path d="M148.079 353L148.533 285.981L2.4806 201.749L2.02643 268.768L148.079 353Z"   fill="url(#linear_fill_SrQAcpJjIFub34JyBVsuE)" >
</path>
<path     fill="#227FFD" fill-opacity="0.09" d="M148.521 285.977L293.641 201.747L147.591 117.517L2.48102 201.747L148.521 285.977">
</path>
<path fill-rule="evenodd"  fill="rgba(61, 221, 255, 1)"  d="M148.521 285.977L288.237 204.884L293.641 201.747L288.229 198.626L147.591 117.517L7.88453 198.611L2.48102 201.747L7.89319 204.869L148.521 285.977ZM13.2967 201.732L148.512 279.719L282.825 201.762L147.6 123.775L13.2967 201.732Z">
</path>
<path d="M2.02643 201.573L148.127 285.92L293.295 201.573L147.195 117.226L2.02643 201.573Z" stroke="rgba(61, 221, 255, 1)" stroke-width="2.03125"   >
</path>
<g opacity="0.4">
<path d="M250.054 61.1538L250.054 260.784L143.989 199.63L143.989 0L250.054 61.1538Z"   fill="url(#linear_fill_cHeGCnxGhQxDkzQpu4LWC)" >
</path>
</g>
<g opacity="0.4">
<path d="M217.418 79.9517L217.418 279.582L111.354 218.428L111.354 18.7979L217.418 79.9517Z"   fill="url(#linear_fill_mexmmDCTM3xmL4x3a3rf5)" >
</path>
</g>
<g opacity="0.4">
<path d="M184.783 98.7769L184.783 298.407L78.7191 237.253L78.7191 37.623L184.783 98.7769Z"   fill="url(#linear_fill_1C4pVoxgqkhwj6CtAozir)" >
</path>
</g>
<g opacity="0.6">
<path d="M152.148 117.258L152.148 316.888L46.0838 255.735L46.0838 56.1045L152.148 117.258Z"   fill="url(#linear_fill_lzWMmsPYrzRbIqWX3VNPg)" >
</path>
</g>
<path d="M148.429 352.746L148.885 284.945L2.48169 200.351L2.02643 268.151L148.429 352.746Z" stroke="rgba(61, 221, 255, 1)" stroke-width="2.03125"   >
</path>
<path    stroke="rgba(61, 221, 255, 1)" stroke-width="2.03125"    d="M2.02643 201.572L148.127 285.92L293.295 201.572">
</path>
<path d="M148.885 352.746L292.847 268.151L293.295 200.351L149.332 284.945L148.885 352.746Z" stroke="rgba(61, 221, 255, 1)" stroke-width="2.03125"   >
</path>
<defs>
<linearGradient id="linear_fill_9l1vjlvMehDME3tAjSLCW" x1="220.85888671875" y1="324.81396484375" x2="220.85888671875" y2="229.64935302734375" gradientUnits="userSpaceOnUse">
<stop offset="0" stop-color="#3DDDFF" stop-opacity="0.6" />
<stop offset="1" stop-color="#2468FF" stop-opacity="0.4" />
</linearGradient>
<linearGradient id="linear_fill_SrQAcpJjIFub34JyBVsuE" x1="75.27984619140625" y1="324.814453125" x2="75.27984619140625" y2="229.65179443359375" gradientUnits="userSpaceOnUse">
<stop offset="0" stop-color="#3DDDFF" stop-opacity="0.6" />
<stop offset="1" stop-color="#2468FF" stop-opacity="0.4" />
</linearGradient>
<linearGradient id="linear_fill_cHeGCnxGhQxDkzQpu4LWC" x1="197.02130126953125" y1="0" x2="197.02130126953125" y2="255.39453125" gradientUnits="userSpaceOnUse">
<stop offset="0" stop-color="#3DE6FF"  />
<stop offset="1" stop-color="#1968FF"  />
</linearGradient>
<linearGradient id="linear_fill_mexmmDCTM3xmL4x3a3rf5" x1="164.38604736328125" y1="18.7978515625" x2="164.38604736328125" y2="274.1923828125" gradientUnits="userSpaceOnUse">
<stop offset="0" stop-color="#3DE6FF"  />
<stop offset="1" stop-color="#1968FF"  />
</linearGradient>
<linearGradient id="linear_fill_1C4pVoxgqkhwj6CtAozir" x1="131.75103759765625" y1="37.623046875" x2="131.75103759765625" y2="293.017578125" gradientUnits="userSpaceOnUse">
<stop offset="0" stop-color="#3DE6FF"  />
<stop offset="1" stop-color="#1968FF"  />
</linearGradient>
<linearGradient id="linear_fill_lzWMmsPYrzRbIqWX3VNPg" x1="99.11578369140625" y1="56.1044921875" x2="99.11578369140625" y2="311.4990234375" gradientUnits="userSpaceOnUse">
<stop offset="0" stop-color="#3DE6FF"  />
<stop offset="1" stop-color="#1968FF"  />
</linearGradient>
</defs>
</svg>
